<svg xmlns="http://www.w3.org/2000/svg" xmlns:xlink="http://www.w3.org/1999/xlink" width="500" zoomAndPan="magnify" viewBox="0 0 375 374.999991" height="500" preserveAspectRatio="xMidYMid meet" version="1.0"><defs><g/></defs><g fill="#000000" fill-opacity="1"><g transform="translate(7.655053, 372.234996)"><g><path d="M 98.703125 0 L 93.609375 0 C 84.785156 0 76.304688 -0.847656 68.171875 -2.546875 C 60.035156 -4.242188 52.828125 -7.296875 46.546875 -11.703125 C 40.273438 -16.109375 35.1875 -22.210938 31.28125 -30.015625 C 27.382812 -37.816406 25.4375 -47.992188 25.4375 -60.546875 L 25.4375 -369.359375 L 33.578125 -369.359375 C 41.710938 -369.359375 49.679688 -368.421875 57.484375 -366.546875 C 65.285156 -364.679688 72.238281 -361.457031 78.34375 -356.875 C 84.445312 -352.300781 89.363281 -346.113281 93.09375 -338.3125 C 96.832031 -330.519531 98.703125 -320.515625 98.703125 -308.296875 Z M 98.703125 0 "/></g></g></g><g fill="#000000" fill-opacity="1"><g transform="translate(123.142125, 372.234996)"><g><path d="M 98.1875 -85.984375 C 98.1875 -82.242188 98.441406 -78.425781 98.953125 -74.53125 C 99.460938 -70.632812 100.476562 -67.070312 102 -63.84375 C 103.53125 -60.625 105.734375 -57.992188 108.609375 -55.953125 C 111.492188 -53.921875 115.484375 -52.90625 120.578125 -52.90625 C 126.679688 -52.90625 132.109375 -54.941406 136.859375 -59.015625 C 137.867188 -56.296875 138.628906 -53.832031 139.140625 -51.625 C 139.648438 -49.425781 139.90625 -46.972656 139.90625 -44.265625 C 139.90625 -38.835938 138.972656 -33.492188 137.109375 -28.234375 C 135.242188 -22.972656 132.273438 -18.304688 128.203125 -14.234375 C 124.128906 -10.171875 118.957031 -6.867188 112.6875 -4.328125 C 106.414062 -1.785156 98.703125 -0.515625 89.546875 -0.515625 C 69.191406 -0.515625 53.414062 -6.617188 42.21875 -18.828125 C 31.03125 -31.035156 25.4375 -47.820312 25.4375 -69.1875 L 25.4375 -370.375 C 34.59375 -370.375 43.492188 -369.691406 52.140625 -368.328125 C 60.796875 -366.972656 68.597656 -364.175781 75.546875 -359.9375 C 82.503906 -355.695312 88.015625 -349.335938 92.078125 -340.859375 C 96.148438 -332.378906 98.1875 -321.019531 98.1875 -306.78125 Z M 148.046875 -369.359375 L 156.1875 -369.359375 C 164.320312 -369.359375 172.289062 -368.421875 180.09375 -366.546875 C 187.894531 -364.679688 194.847656 -361.457031 200.953125 -356.875 C 207.054688 -352.300781 211.972656 -346.113281 215.703125 -338.3125 C 219.441406 -330.519531 221.3125 -320.515625 221.3125 -308.296875 L 221.3125 -138.890625 C 221.3125 -122.609375 219.441406 -109.039062 215.703125 -98.1875 C 211.972656 -87.332031 206.882812 -78.765625 200.4375 -72.484375 C 194 -66.210938 186.539062 -61.71875 178.0625 -59 C 169.582031 -56.289062 160.59375 -54.9375 151.09375 -54.9375 L 148.046875 -54.9375 Z M 148.046875 -369.359375 "/></g></g></g></svg>